<svg width="24" height="24" viewBox="0 0 24 24" fill="none" xmlns="http://www.w3.org/2000/svg">
<path d="M9.54001 16.67C9.13001 16.67 8.79001 16.33 8.79001 15.92V12.53L8.6 12.74C8.32 13.05 7.85001 13.07 7.54001 12.8C7.23001 12.52 7.21001 12.05 7.48001 11.74L8.98001 10.07C9.19001 9.84002 9.52 9.76001 9.81 9.87001C10.1 9.98001 10.29 10.26 10.29 10.57V15.92C10.29 16.34 9.96001 16.67 9.54001 16.67Z" fill="#9B51E0"/>
<path opacity="0.4" d="M12 3.47998C11.92 3.47998 11.84 3.48999 11.76 3.48999L12.58 2.46997C12.84 2.14997 12.79 1.66998 12.46 1.41998C12.14 1.15998 11.67 1.20998 11.41 1.53998L9.42999 4.01001C9.41999 4.02001 9.42 4.03999 9.41 4.04999C9.38 4.08999 9.36 4.14 9.34 4.19C9.32 4.23 9.30001 4.27001 9.29001 4.32001C9.28001 4.37001 9.28 4.41002 9.28 4.46002C9.28 4.51002 9.28 4.55999 9.28 4.60999C9.28 4.62999 9.28 4.63997 9.28 4.65997C9.29 4.68997 9.31001 4.72 9.32001 4.75C9.34001 4.8 9.35 4.84001 9.38 4.88001C9.41 4.92001 9.44001 4.96 9.48001 5C9.50001 5.02 9.51001 5.05001 9.54001 5.07001C9.55001 5.08001 9.56999 5.08003 9.57999 5.09003C9.60999 5.11003 9.63999 5.13002 9.67999 5.14002C9.72999 5.17002 9.77999 5.19001 9.82999 5.20001C9.85999 5.21001 9.89999 5.20997 9.92999 5.21997C9.95999 5.21997 9.98001 5.22998 10.01 5.22998C10.03 5.22998 10.06 5.22002 10.08 5.21002C10.11 5.21002 10.14 5.21002 10.18 5.21002C10.82 5.06002 11.42 4.98999 11.99 4.98999C16.48 4.98999 20.13 8.64001 20.13 13.13C20.13 17.62 16.48 21.27 11.99 21.27C7.49999 21.27 3.85001 17.62 3.85001 13.13C3.85001 11.39 4.42 9.71002 5.5 8.27002C5.75 7.94002 5.68001 7.46997 5.35001 7.21997C5.02001 6.96997 4.54999 7.04 4.29999 7.37C3.01999 9.07 2.35001 11.06 2.35001 13.13C2.35001 18.44 6.66999 22.77 11.99 22.77C17.31 22.77 21.63 18.45 21.63 13.13C21.63 7.81 17.31 3.47998 12 3.47998Z" fill="#9B51E0"/>
<path d="M14 16.67C12.48 16.67 11.25 15.44 11.25 13.92V12.57C11.25 11.05 12.48 9.82001 14 9.82001C15.52 9.82001 16.75 11.05 16.75 12.57V13.92C16.75 15.44 15.52 16.67 14 16.67ZM14 11.33C13.31 11.33 12.75 11.89 12.75 12.58V13.93C12.75 14.62 13.31 15.18 14 15.18C14.69 15.18 15.25 14.62 15.25 13.93V12.58C15.25 11.89 14.69 11.33 14 11.33Z" fill="#9B51E0"/>
</svg>
