<svg width="25" height="24" viewBox="0 0 25 24" fill="none" xmlns="http://www.w3.org/2000/svg">
<path d="M20.5015 15.25C20.0915 15.25 19.7515 14.91 19.7515 14.5C19.7515 14.09 20.0915 13.75 20.5015 13.75C21.0915 13.75 21.2215 13.66 21.2315 13.66C21.2515 13.6 21.2515 13.25 21.2515 13V11C21.2515 10.75 21.2515 10.41 21.2115 10.32C21.2015 10.33 21.0515 10.25 20.5015 10.25C20.0915 10.25 19.7515 9.91 19.7515 9.5C19.7515 9.09 20.0915 8.75 20.5015 8.75C22.5815 8.75 22.7515 9.77 22.7515 11V13C22.7515 14.23 22.5815 15.25 20.5015 15.25Z" fill="#2D9CDB"/>
<path d="M6.38146 14.75C6.32146 14.75 6.26146 14.74 6.20146 14.73C5.80146 14.63 5.55146 14.22 5.65146 13.82C5.95146 12.63 5.95146 11.37 5.65146 10.18C5.55146 9.78 5.79146 9.37 6.20146 9.27C6.60146 9.17 7.00146 9.42 7.10146 9.82C7.46146 11.25 7.46146 12.76 7.10146 14.18C7.02146 14.52 6.71146 14.75 6.38146 14.75Z" fill="#2F80ED"/>
<path d="M9.88146 14.75C9.82146 14.75 9.76146 14.74 9.70146 14.73C9.30146 14.63 9.05146 14.22 9.15146 13.82C9.45146 12.63 9.45146 11.37 9.15146 10.18C9.05146 9.78 9.29146 9.37 9.70146 9.27C10.1015 9.17 10.5115 9.41 10.6115 9.82C10.9715 11.25 10.9715 12.76 10.6115 14.18C10.5215 14.52 10.2115 14.75 9.88146 14.75Z" fill="#2F80ED"/>
<path d="M13.0015 19.75H7.00146C2.59146 19.75 1.25146 18.41 1.25146 14V10C1.25146 5.59 2.59146 4.25 7.00146 4.25H13.0015C17.4115 4.25 18.7515 5.59 18.7515 10V14C18.7515 18.41 17.4115 19.75 13.0015 19.75ZM7.00146 5.75C3.43146 5.75 2.75146 6.43 2.75146 10V14C2.75146 17.57 3.43146 18.25 7.00146 18.25H13.0015C16.5715 18.25 17.2515 17.57 17.2515 14V10C17.2515 6.43 16.5715 5.75 13.0015 5.75H7.00146Z" fill="#2F80ED"/>
</svg>
