<svg width="25" height="24" viewBox="0 0 25 24" fill="none" xmlns="http://www.w3.org/2000/svg">
<path opacity="0.4" d="M8.00146 22H16.0015C18.7615 22 21.0015 19.76 21.0015 17V7C21.0015 4.24 18.7615 2 16.0015 2H8.00146C5.24146 2 3.00146 4.24 3.00146 7V17C3.00146 19.76 5.24146 22 8.00146 22Z" fill="#F2994A"/>
<path d="M15.0015 5.71H9.00146C7.97146 5.71 7.12146 6.55 7.12146 7.59V8.59C7.12146 9.62 7.96146 10.47 9.00146 10.47H15.0015C16.0315 10.47 16.8815 9.63 16.8815 8.59V7.59C16.8815 6.55 16.0415 5.71 15.0015 5.71Z" fill="#EB5757"/>
<path d="M8.16146 14.92C8.02146 14.92 7.89146 14.89 7.77146 14.84C7.65146 14.79 7.54146 14.72 7.45146 14.63C7.26146 14.44 7.15146 14.19 7.15146 13.92C7.15146 13.79 7.18146 13.66 7.23146 13.54C7.28146 13.41 7.35146 13.31 7.45146 13.21C7.68146 12.98 8.03146 12.87 8.35146 12.94C8.41146 12.95 8.48146 12.97 8.54146 13C8.60146 13.02 8.66146 13.05 8.71146 13.09C8.77146 13.12 8.82146 13.17 8.86146 13.21C8.95146 13.31 9.03146 13.41 9.08146 13.54C9.13146 13.66 9.15146 13.79 9.15146 13.92C9.15146 14.19 9.05146 14.44 8.86146 14.63C8.67146 14.82 8.42146 14.92 8.16146 14.92Z" fill="#EB5757"/>
<path d="M12.1515 14.92C11.8915 14.92 11.6415 14.82 11.4515 14.63C11.2615 14.44 11.1515 14.19 11.1515 13.92C11.1515 13.66 11.2615 13.4 11.4515 13.21C11.8215 12.84 12.4915 12.84 12.8615 13.21C12.9515 13.31 13.0315 13.41 13.0815 13.54C13.1315 13.66 13.1515 13.79 13.1515 13.92C13.1515 14.19 13.0515 14.44 12.8615 14.63C12.6715 14.82 12.4215 14.92 12.1515 14.92Z" fill="#EB5757"/>
<path d="M16.1515 14.92C15.8915 14.92 15.6415 14.82 15.4515 14.63C15.2615 14.44 15.1515 14.19 15.1515 13.92C15.1515 13.66 15.2615 13.4 15.4515 13.21C15.8215 12.84 16.4915 12.84 16.8615 13.21C17.0515 13.4 17.1615 13.66 17.1615 13.92C17.1615 14.05 17.1315 14.18 17.0815 14.3C17.0315 14.42 16.9615 14.53 16.8615 14.63C16.6715 14.82 16.4215 14.92 16.1515 14.92Z" fill="#EB5757"/>
<path d="M8.16146 18.92C7.89146 18.92 7.64146 18.82 7.45146 18.63C7.26146 18.44 7.15146 18.19 7.15146 17.92C7.15146 17.66 7.26146 17.4 7.45146 17.21C7.54146 17.12 7.65146 17.05 7.77146 17C8.02146 16.9 8.29146 16.9 8.54146 17C8.60146 17.02 8.66146 17.05 8.71146 17.09C8.77146 17.12 8.82146 17.17 8.86146 17.21C9.05146 17.4 9.16146 17.66 9.16146 17.92C9.16146 18.19 9.05146 18.44 8.86146 18.63C8.67146 18.82 8.42146 18.92 8.16146 18.92Z" fill="#EB5757"/>
<path d="M12.1515 18.92C11.8915 18.92 11.6415 18.82 11.4515 18.63C11.2615 18.44 11.1515 18.19 11.1515 17.92C11.1515 17.85 11.1615 17.79 11.1715 17.72C11.1915 17.66 11.2115 17.6 11.2315 17.54C11.2615 17.48 11.2915 17.42 11.3215 17.36C11.3615 17.31 11.4015 17.26 11.4515 17.21C11.5415 17.12 11.6515 17.05 11.7715 17C12.1415 16.85 12.5815 16.93 12.8615 17.21C13.0515 17.4 13.1515 17.66 13.1515 17.92C13.1515 18.19 13.0515 18.44 12.8615 18.63C12.7715 18.72 12.6615 18.79 12.5415 18.84C12.4215 18.89 12.2915 18.92 12.1515 18.92Z" fill="#EB5757"/>
<path d="M16.1515 18.92C16.0215 18.92 15.8915 18.89 15.7715 18.84C15.6515 18.79 15.5415 18.72 15.4515 18.63C15.2615 18.44 15.1615 18.19 15.1615 17.92C15.1615 17.66 15.2615 17.4 15.4515 17.21C15.7215 16.93 16.1715 16.85 16.5415 17C16.6615 17.05 16.7715 17.12 16.8615 17.21C17.0515 17.4 17.1515 17.66 17.1515 17.92C17.1515 18.19 17.0515 18.44 16.8615 18.63C16.6715 18.82 16.4215 18.92 16.1515 18.92Z" fill="#EB5757"/>
</svg>
