<svg width="25" height="24" viewBox="0 0 25 24" fill="none" xmlns="http://www.w3.org/2000/svg">
<path d="M11.965 14.4092L11.9652 14.4094L15.056 16.2538C15.2691 16.3922 15.4955 16.44 15.7015 16.44C16.1266 16.44 16.5452 16.2265 16.7808 15.8263C17.144 15.2266 16.9423 14.4592 16.3458 14.1095L13.2477 12.2606L13.2477 12.2606L13.2425 12.2576C13.193 12.2288 13.0951 12.134 13.0048 11.9753C12.9149 11.8172 12.8815 11.6816 12.8815 11.62V7.52C12.8815 6.83386 12.3176 6.27 11.6315 6.27C10.9453 6.27 10.3815 6.83386 10.3815 7.52V11.62C10.3815 12.6856 11.0436 13.8588 11.965 14.4092ZM2.50146 12C2.50146 6.76614 6.76761 2.5 12.0015 2.5C17.2353 2.5 21.5015 6.76614 21.5015 12C21.5015 17.2339 17.2353 21.5 12.0015 21.5C6.76761 21.5 2.50146 17.2339 2.50146 12Z" fill="#6FCF97" stroke="#27AE60"/>
</svg>
