<svg width="25" height="24" viewBox="0 0 25 24" fill="none" xmlns="http://www.w3.org/2000/svg">
<path opacity="0.4" d="M20.5715 11.01C19.8115 10.1 18.8115 9.49 17.6715 9.24C17.4215 8.09 16.9615 7.09 16.3115 6.27C16.2915 6.24 16.2715 6.21 16.2515 6.19C14.0615 3.54 10.4715 3.55 8.05147 4.92C5.98147 6.1 4.22147 8.59 5.14147 12.16C3.02147 12.68 2.04147 14.53 2.04147 16.2C2.04147 18.07 3.26147 20.18 5.99147 20.37H16.2915C16.3015 20.37 16.3215 20.37 16.3315 20.37C17.7515 20.37 19.1015 19.85 20.1415 18.89C22.6615 16.69 22.3315 13.08 20.5715 11.01Z" fill="#56CCF2"/>
<path d="M21.2715 8.76C21.2715 9.78 20.8015 10.7 20.0415 11.3C19.4915 11.75 18.7815 12.02 18.0115 12.02C16.2215 12.02 14.7615 10.56 14.7615 8.77C14.7615 7.88 15.1215 7.07 15.7215 6.48V6.47C16.3115 5.88 17.1215 5.51 18.0115 5.51C19.8115 5.51 21.2715 6.97 21.2715 8.76Z" fill="#F2994A"/>
</svg>
