<svg width="24" height="24" viewBox="0 0 24 24" fill="none" xmlns="http://www.w3.org/2000/svg">
<path opacity="0.4" d="M20.78 14.18V17.12C20.78 18.22 19.88 19.12 18.78 19.12H5.22C4.12 19.12 3.22 18.22 3.22 17.12V14.18C3.22 9.36 7.12 5.46 11.94 5.46H12.06C16.88 5.45 20.78 9.36 20.78 14.18Z" fill="#FF4110"/>
<path d="M12.75 2.53V5.49C12.52 5.47 12.29 5.46 12.06 5.46H11.94C11.71 5.46 11.48 5.47 11.25 5.49V2.53C11.25 2.12 11.59 1.78 12 1.78C12.41 1.78 12.75 2.12 12.75 2.53Z" fill="#FF4110"/>
<path d="M15.32 19.11C15.2 20.85 13.76 22.22 12 22.22C10.24 22.22 8.78999 20.85 8.67999 19.11H15.32Z" fill="#FF4110"/>
</svg>
