<svg width="25" height="24" viewBox="0 0 25 24" fill="none" xmlns="http://www.w3.org/2000/svg">
<path d="M19.0015 8C20.6583 8 22.0015 6.65685 22.0015 5C22.0015 3.34315 20.6583 2 19.0015 2C17.3446 2 16.0015 3.34315 16.0015 5C16.0015 6.65685 17.3446 8 19.0015 8Z" fill="#BB6BD9"/>
<path opacity="0.4" d="M19.0015 9.5C16.5215 9.5 14.5015 7.48 14.5015 5C14.5015 4.28 14.6915 3.61 14.9915 3H7.52146C4.07146 3 2.00146 5.06 2.00146 8.52V16.47C2.00146 19.94 4.07146 22 7.52146 22H15.4715C18.9315 22 20.9915 19.94 20.9915 16.48V9.01C20.3915 9.31 19.7215 9.5 19.0015 9.5Z" fill="#9B51E0"/>
<path d="M11.7515 14H6.75146C6.34146 14 6.00146 13.66 6.00146 13.25C6.00146 12.84 6.34146 12.5 6.75146 12.5H11.7515C12.1615 12.5 12.5015 12.84 12.5015 13.25C12.5015 13.66 12.1615 14 11.7515 14Z" fill="#9B51E0"/>
<path d="M15.7515 18H6.75146C6.34146 18 6.00146 17.66 6.00146 17.25C6.00146 16.84 6.34146 16.5 6.75146 16.5H15.7515C16.1615 16.5 16.5015 16.84 16.5015 17.25C16.5015 17.66 16.1615 18 15.7515 18Z" fill="#BB6BD9"/>
</svg>
