<svg width="25" height="24" viewBox="0 0 25 24" fill="none" xmlns="http://www.w3.org/2000/svg">
<path d="M9.5415 16.67C9.1315 16.67 8.7915 16.33 8.7915 15.92V12.53L8.6015 12.74C8.3215 13.05 7.8515 13.07 7.5415 12.8C7.2315 12.52 7.2115 12.05 7.4815 11.74L8.9815 10.07C9.1915 9.84002 9.52149 9.76001 9.81149 9.87001C10.1015 9.98001 10.2915 10.26 10.2915 10.57V15.92C10.2915 16.34 9.9615 16.67 9.5415 16.67Z" fill="#3D4754"/>
<path opacity="0.4" d="M12.0016 3.47998C11.9216 3.47998 11.8416 3.48999 11.7616 3.48999L12.5815 2.46997C12.8415 2.14997 12.7915 1.66998 12.4615 1.41998C12.1415 1.15998 11.6716 1.20998 11.4116 1.53998L9.43155 4.01001C9.42155 4.02001 9.42156 4.03999 9.41156 4.04999C9.38156 4.08999 9.36155 4.14 9.34155 4.19C9.32155 4.23 9.30157 4.27001 9.29156 4.32001C9.28156 4.37001 9.28156 4.41002 9.28156 4.46002C9.28156 4.51002 9.28156 4.55999 9.28156 4.60999C9.28156 4.62999 9.28156 4.63997 9.28156 4.65997C9.29156 4.68997 9.31156 4.72 9.32156 4.75C9.34156 4.8 9.35156 4.84001 9.38156 4.88001C9.41156 4.92001 9.44157 4.96 9.48157 5C9.50157 5.02 9.51156 5.05001 9.54156 5.07001C9.55157 5.08001 9.57154 5.08003 9.58154 5.09003C9.61154 5.11003 9.64155 5.13002 9.68155 5.14002C9.73155 5.17002 9.78154 5.19001 9.83154 5.20001C9.86154 5.21001 9.90155 5.20997 9.93155 5.21997C9.96155 5.21997 9.98157 5.22998 10.0116 5.22998C10.0316 5.22998 10.0615 5.22002 10.0815 5.21002C10.1115 5.21002 10.1415 5.21002 10.1815 5.21002C10.8215 5.06002 11.4215 4.98999 11.9915 4.98999C16.4815 4.98999 20.1316 8.64001 20.1316 13.13C20.1316 17.62 16.4815 21.27 11.9915 21.27C7.50155 21.27 3.85156 17.62 3.85156 13.13C3.85156 11.39 4.42156 9.71002 5.50156 8.27002C5.75156 7.94002 5.68156 7.46997 5.35156 7.21997C5.02156 6.96997 4.55154 7.04 4.30154 7.37C3.02154 9.07 2.35156 11.06 2.35156 13.13C2.35156 18.44 6.67155 22.77 11.9915 22.77C17.3115 22.77 21.6316 18.45 21.6316 13.13C21.6316 7.81 17.3116 3.47998 12.0016 3.47998Z" fill="#3D4754"/>
<path d="M14.0015 16.67C12.4815 16.67 11.2515 15.44 11.2515 13.92V12.57C11.2515 11.05 12.4815 9.82001 14.0015 9.82001C15.5215 9.82001 16.7515 11.05 16.7515 12.57V13.92C16.7515 15.44 15.5215 16.67 14.0015 16.67ZM14.0015 11.33C13.3115 11.33 12.7515 11.89 12.7515 12.58V13.93C12.7515 14.62 13.3115 15.18 14.0015 15.18C14.6915 15.18 15.2515 14.62 15.2515 13.93V12.58C15.2515 11.89 14.6915 11.33 14.0015 11.33Z" fill="#3D4754"/>
</svg>
