<svg width="25" height="24" viewBox="0 0 25 24" fill="none" xmlns="http://www.w3.org/2000/svg">
<path opacity="0.4" d="M16.1915 2H7.82147C4.18147 2 2.01147 4.17 2.01147 7.81V16.18C2.01147 19.82 4.18147 21.99 7.82147 21.99H16.1915C19.8315 21.99 22.0015 19.82 22.0015 16.18V7.81C22.0015 4.17 19.8315 2 16.1915 2Z" fill="#FF4110"/>
<path d="M6.00146 14.89C5.59146 14.89 5.25146 14.55 5.25146 14.14V9.85001C5.25146 9.44001 5.59146 9.10001 6.00146 9.10001C6.41146 9.10001 6.75146 9.44001 6.75146 9.85001V14.14C6.75146 14.56 6.41146 14.89 6.00146 14.89Z" fill="#FF4110"/>
<path d="M9.00146 16.32C8.59146 16.32 8.25146 15.98 8.25146 15.57V8.42999C8.25146 8.01999 8.59146 7.67999 9.00146 7.67999C9.41146 7.67999 9.75146 8.01999 9.75146 8.42999V15.57C9.75146 15.99 9.41146 16.32 9.00146 16.32Z" fill="#FF4110"/>
<path d="M12.0015 17.75C11.5915 17.75 11.2515 17.41 11.2515 17V7C11.2515 6.59 11.5915 6.25 12.0015 6.25C12.4115 6.25 12.7515 6.59 12.7515 7V17C12.7515 17.41 12.4115 17.75 12.0015 17.75Z" fill="#FF4110"/>
<path d="M15.0015 16.32C14.5915 16.32 14.2515 15.98 14.2515 15.57V8.42999C14.2515 8.01999 14.5915 7.67999 15.0015 7.67999C15.4115 7.67999 15.7515 8.01999 15.7515 8.42999V15.57C15.7515 15.99 15.4115 16.32 15.0015 16.32Z" fill="#FF4110"/>
<path d="M18.0015 14.89C17.5915 14.89 17.2515 14.55 17.2515 14.14V9.85001C17.2515 9.44001 17.5915 9.10001 18.0015 9.10001C18.4115 9.10001 18.7515 9.44001 18.7515 9.85001V14.14C18.7515 14.56 18.4115 14.89 18.0015 14.89Z" fill="#FF4110"/>
</svg>
