<svg width="297" height="99" viewBox="0 0 297 99" fill="none" xmlns="http://www.w3.org/2000/svg">
<path fill-rule="evenodd" clip-rule="evenodd" d="M284.33 22.5456C285.434 22.5745 286.306 23.4931 286.277 24.5972L284.785 81.5777C284.756 82.6819 283.838 83.5536 282.733 83.5247C281.629 83.4958 280.758 82.5772 280.786 81.473L282.279 24.4925C282.307 23.3883 283.226 22.5167 284.33 22.5456ZM76.2706 22.0991C76.2996 20.9949 75.4279 20.0763 74.3237 20.0474C73.2195 20.0185 72.3009 20.8902 72.272 21.9944L70.937 72.9769C70.9081 74.0811 71.7798 74.9996 72.8839 75.0285C73.9881 75.0575 74.9067 74.1858 74.9356 73.0816L76.2706 22.0991ZM24.1707 25.2363C25.2749 25.2652 26.1465 26.1838 26.1176 27.288L25.1229 65.275C25.094 66.3792 24.1754 67.2508 23.0712 67.2219C21.967 67.193 21.0954 66.2744 21.1243 65.1703L22.119 27.1833C22.1479 26.0791 23.0665 25.2074 24.1707 25.2363ZM16.0163 31.0248C16.0453 29.9207 15.1736 29.0021 14.0694 28.9732C12.9652 28.9443 12.0466 29.8159 12.0177 30.9201L11.2324 60.9099C11.2035 62.014 12.0752 62.9326 13.1794 62.9615C14.2836 62.9904 15.2021 62.1188 15.231 61.0146L16.0163 31.0248ZM5.90197 35.2615C5.93088 34.1573 5.0592 33.2388 3.95501 33.2099C2.85082 33.181 1.93226 34.0526 1.90334 35.1568L1.35363 56.1496C1.32471 57.2538 2.19639 58.1724 3.30059 58.2013C4.40478 58.2302 5.32334 57.3585 5.35225 56.2543L5.90197 35.2615ZM35.8917 36.0468C35.9206 34.9427 35.0489 34.0241 33.9447 33.9952C32.8405 33.9663 31.922 34.8379 31.8931 35.9421L31.3433 56.9349C31.3144 58.0391 32.1861 58.9577 33.2903 58.9866C34.3945 59.0155 35.3131 58.1438 35.342 57.0396L35.8917 36.0468ZM43.9413 34.2569C45.0455 34.2859 45.9172 35.2044 45.8883 36.3086L45.3385 57.3014C45.3096 58.4056 44.3911 59.2773 43.2869 59.2484C42.1827 59.2195 41.311 58.3009 41.3399 57.1967L41.8896 36.2039C41.9185 35.0997 42.8371 34.228 43.9413 34.2569ZM55.8848 36.5704C55.9138 35.4662 55.0421 34.5476 53.9379 34.5187C52.8337 34.4898 51.9151 35.3615 51.8862 36.4657L51.3365 57.4585C51.3076 58.5627 52.1793 59.4812 53.2835 59.5101C54.3876 59.5391 55.3062 58.6674 55.3351 57.5632L55.8848 36.5704ZM63.9344 34.7805C65.0386 34.8094 65.9103 35.728 65.8814 36.8322L65.3317 57.825C65.3028 58.9291 64.3842 59.8008 63.28 59.7719C62.1758 59.743 61.3042 58.8244 61.3331 57.7202L61.8828 36.7274C61.9117 35.6233 62.8303 34.7516 63.9344 34.7805ZM83.9276 35.304C85.0318 35.3329 85.9035 36.2515 85.8746 37.3557L85.3248 58.3485C85.2959 59.4527 84.3774 60.3244 83.2732 60.2955C82.169 60.2665 81.2973 59.348 81.3262 58.2438L81.8759 37.251C81.9048 36.1468 82.8234 35.2751 83.9276 35.304ZM96.002 32.6192C96.0309 31.515 95.1592 30.5964 94.0551 30.5675C92.9509 30.5386 92.0323 31.4103 92.0034 32.5145L91.1919 63.5038C91.163 64.608 92.0347 65.5266 93.1389 65.5555C94.2431 65.5844 95.1616 64.7127 95.1905 63.6086L96.002 32.6192ZM103.921 35.8276C105.025 35.8565 105.897 36.775 105.868 37.8792L105.318 58.872C105.289 59.9762 104.371 60.8479 103.266 60.819C102.162 60.7901 101.29 59.8715 101.319 58.7673L101.869 37.7745C101.898 36.6703 102.817 35.7986 103.921 35.8276ZM116.257 23.1461C116.286 22.0419 115.414 21.1234 114.31 21.0945C113.206 21.0656 112.287 21.9372 112.258 23.0414L110.923 74.024C110.894 75.1281 111.766 76.0467 112.87 76.0756C113.974 76.1045 114.893 75.2329 114.922 74.1287L116.257 23.1461ZM124.189 25.8547C125.293 25.8836 126.165 26.8022 126.136 27.9064L125.036 69.892C125.007 70.9962 124.089 71.8678 122.985 71.8389C121.88 71.81 121.009 70.8915 121.038 69.7873L122.137 27.8017C122.166 26.6975 123.085 25.8258 124.189 25.8547ZM135.857 38.6645C135.886 37.5603 135.015 36.6418 133.91 36.6129C132.806 36.584 131.888 37.4556 131.859 38.5598L131.309 59.5526C131.28 60.6568 132.152 61.5754 133.256 61.6043C134.36 61.6332 135.279 60.7615 135.308 59.6573L135.857 38.6645ZM143.907 36.8746C145.011 36.9036 145.883 37.8221 145.854 38.9263L145.304 59.9191C145.275 61.0233 144.357 61.895 143.253 61.8661C142.148 61.8372 141.277 60.9186 141.306 59.8144L141.855 38.8216C141.884 37.7174 142.803 36.8457 143.907 36.8746ZM155.851 39.1881C155.879 38.0839 155.008 37.1653 153.904 37.1364C152.799 37.1075 151.881 37.9792 151.852 39.0834L151.302 60.0762C151.273 61.1804 152.145 62.0989 153.249 62.1278C154.353 62.1568 155.272 61.2851 155.301 60.1809L155.851 39.1881ZM163.9 37.3982C165.004 37.4271 165.876 38.3457 165.847 39.4498L165.297 60.4427C165.269 61.5468 164.35 62.4185 163.246 62.3896C162.142 62.3607 161.27 61.4421 161.299 60.3379L161.849 39.3451C161.877 38.2409 162.796 37.3693 163.9 37.3982ZM176.105 29.715C176.134 28.6109 175.263 27.6923 174.159 27.6634C173.054 27.6345 172.136 28.5061 172.107 29.6103L171.034 70.5963C171.005 71.7005 171.876 72.619 172.981 72.648C174.085 72.6769 175.003 71.8052 175.032 70.701L176.105 29.715ZM183.762 42.92C184.867 42.9489 185.738 43.8675 185.709 44.9717L185.421 55.9679C185.393 57.0721 184.474 57.9438 183.37 57.9149C182.266 57.8859 181.394 56.9674 181.423 55.8632L181.711 44.867C181.74 43.7628 182.658 42.8911 183.762 42.92ZM195.837 40.2352C195.866 39.131 194.994 38.2124 193.89 38.1835C192.786 38.1546 191.867 39.0263 191.838 40.1304L191.289 61.1233C191.26 62.2274 192.131 63.146 193.235 63.1749C194.34 63.2038 195.258 62.3321 195.287 61.228L195.837 40.2352ZM203.886 38.4453C204.991 38.4742 205.862 39.3927 205.833 40.4969L205.284 61.4897C205.255 62.5939 204.336 63.4656 203.232 63.4367C202.128 63.4078 201.256 62.4892 201.285 61.385L201.835 40.3922C201.864 39.288 202.782 38.4163 203.886 38.4453ZM215.699 45.757C215.728 44.6528 214.856 43.7342 213.752 43.7053C212.648 43.6764 211.729 44.5481 211.7 45.6523L211.413 56.6485C211.384 57.7527 212.255 58.6713 213.36 58.7002C214.464 58.7291 215.382 57.8574 215.411 56.7532L215.699 45.757ZM223.749 43.9671C224.853 43.996 225.725 44.9146 225.696 46.0187L225.408 57.015C225.379 58.1192 224.46 58.9909 223.356 58.9619C222.252 58.933 221.38 58.0145 221.409 56.9103L221.697 45.914C221.726 44.8099 222.645 43.9382 223.749 43.9671ZM235.928 37.2836C235.957 36.1794 235.085 35.2608 233.981 35.2319C232.877 35.203 231.958 36.0747 231.929 37.1789L231.17 66.169C231.141 67.2731 232.013 68.1917 233.117 68.2206C234.221 68.2495 235.14 67.3779 235.169 66.2737L235.928 37.2836ZM244.082 31.4951C245.186 31.524 246.058 32.4426 246.029 33.5467L245.061 70.5341C245.032 71.6383 244.113 72.5099 243.009 72.481C241.905 72.4521 241.033 71.5335 241.062 70.4294L242.031 33.442C242.059 32.3378 242.978 31.4662 244.082 31.4951ZM255.764 43.8051C255.793 42.7009 254.921 41.7823 253.817 41.7534C252.713 41.7245 251.794 42.5962 251.765 43.7004L251.294 61.6942C251.265 62.7984 252.137 63.717 253.241 63.7459C254.345 63.7748 255.264 62.9031 255.293 61.7989L255.764 43.8051ZM263.997 35.0176C265.101 35.0465 265.973 35.9651 265.944 37.0693L265.132 68.0586C265.103 69.1628 264.185 70.0345 263.081 70.0056C261.976 69.9767 261.105 69.0581 261.134 67.9539L261.945 36.9645C261.974 35.8604 262.893 34.9887 263.997 35.0176ZM276.019 34.3321C276.048 33.2279 275.176 32.3093 274.072 32.2804C272.968 32.2515 272.049 33.1232 272.02 34.2273L271.052 71.2147C271.023 72.3189 271.894 73.2374 272.999 73.2663C274.103 73.2952 275.021 72.4236 275.05 71.3194L276.019 34.3321ZM296.012 34.8556C296.041 33.7514 295.169 32.8328 294.065 32.8039C292.961 32.775 292.042 33.6467 292.013 34.7509L291.045 71.7382C291.016 72.8424 291.888 73.761 292.992 73.7899C294.096 73.8188 295.015 72.9471 295.043 71.8429L296.012 34.8556Z" fill="url(#paint0_linear_103_17)"/>
<defs>
<linearGradient id="paint0_linear_103_17" x1="287.753" y1="44.6427" x2="2.11277" y2="27.1596" gradientUnits="userSpaceOnUse">
<stop stop-color="#0A0610"/>
<stop offset="0.541667" stop-color="#FF4110"/>
</linearGradient>
</defs>
</svg>
