<svg width="64" height="64" viewBox="0 0 64 64" fill="none" xmlns="http://www.w3.org/2000/svg">
<path d="M25.5 13C23.2047 13.0016 20.9477 13.5879 18.9419 14.7037C16.936 15.8195 15.2476 17.428 14.0357 19.3773C12.8239 21.3266 12.1287 23.5525 12.0158 25.845C11.9028 28.1375 12.3757 30.421 13.39 32.48C13.462 32.6268 13.569 32.7538 13.7015 32.8497C13.834 32.9455 13.988 33.0075 14.15 33.03H14.29C14.4271 33.0296 14.5627 33.0009 14.6883 32.9459C14.8138 32.8908 14.9268 32.8105 15.02 32.71C16.0966 31.5345 17.4073 30.5971 18.8677 29.9582C20.3281 29.3193 21.906 28.9929 23.5 29C25.1836 28.9924 26.8475 29.3614 28.37 30.08C28.5443 30.1635 28.7391 30.1948 28.9307 30.1699C29.1224 30.1451 29.3028 30.0652 29.45 29.94C31.7035 28.0428 34.5542 27.0016 37.5 27H37.86C38.0035 27.0187 38.1493 27.006 38.2875 26.9629C38.4256 26.9197 38.5527 26.8471 38.66 26.75C38.7667 26.6563 38.8522 26.5409 38.9108 26.4116C38.9694 26.2823 38.9998 26.142 39 26C38.888 22.5011 37.4141 19.1841 34.8925 16.7559C32.3708 14.3276 29.0007 12.98 25.5 13Z" fill="#F4EC90"/>
<path d="M49.27 31C47.9879 29.2154 46.3151 27.7472 44.3793 26.7074C42.4435 25.6676 40.2958 25.0836 38.1 25C37.9003 24.985 37.6997 24.985 37.5 25C34.2995 24.9945 31.1874 26.0494 28.65 28C27.0168 27.3278 25.2661 26.9878 23.5 27C21.686 27.0032 19.891 27.3704 18.2214 28.0798C16.5518 28.7892 15.0415 29.8264 13.78 31.13C10.9128 31.5648 8.31577 33.0668 6.50901 35.3351C4.70224 37.6035 3.81916 40.4707 4.03665 43.3625C4.25413 46.2542 5.55612 48.9571 7.68184 50.9297C9.80755 52.9023 12.6 53.9989 15.5 54C16.8053 54.0045 18.1014 53.7811 19.33 53.34C21.1464 53.9175 23.0636 54.1081 24.9581 53.8997C26.8527 53.6913 28.6826 53.0885 30.33 52.13C32.302 53.2277 34.5001 53.8573 36.7542 53.97C39.0084 54.0827 41.2583 53.6755 43.33 52.78C44.8513 53.5312 46.5199 53.9365 48.2163 53.9668C49.9126 53.9972 51.5947 53.6518 53.1418 52.9554C54.689 52.2591 56.0629 51.229 57.165 49.9391C58.2671 48.6492 59.0702 47.1314 59.5166 45.4945C59.963 43.8577 60.0417 42.1423 59.7471 40.4715C59.4524 38.8006 58.7917 37.2157 57.8123 35.8303C56.8329 34.4449 55.5591 33.2933 54.0823 32.4582C52.6054 31.6231 50.962 31.1251 49.27 31Z" fill="#56CCF2"/>
<path d="M15.05 16.06C14.9136 16.0608 14.7785 16.0338 14.6529 15.9805C14.5274 15.9272 14.4141 15.8487 14.32 15.75L12.92 14.26C12.76 14.0643 12.6801 13.8152 12.6963 13.5629C12.7126 13.3107 12.8238 13.0739 13.0075 12.9003C13.1913 12.7267 13.4339 12.6291 13.6867 12.6272C13.9395 12.6253 14.1836 12.7192 14.37 12.89L15.78 14.38C15.9121 14.5225 15.9999 14.7003 16.0326 14.8919C16.0652 15.0834 16.0414 15.2803 15.9639 15.4585C15.8865 15.6367 15.7588 15.7885 15.5965 15.8953C15.4342 16.0022 15.2443 16.0594 15.05 16.06ZM9.99999 27.86H7.92999C7.66478 27.86 7.41042 27.7546 7.22289 27.5671C7.03535 27.3796 6.92999 27.1252 6.92999 26.86C6.92999 26.5948 7.03535 26.3404 7.22289 26.1529C7.41042 25.9654 7.66478 25.86 7.92999 25.86H9.99999C10.2652 25.86 10.5196 25.9654 10.7071 26.1529C10.8946 26.3404 11 26.5948 11 26.86C11 27.1252 10.8946 27.3796 10.7071 27.5671C10.5196 27.7546 10.2652 27.86 9.99999 27.86ZM11 21.75C10.8659 21.7497 10.7333 21.7225 10.61 21.67L9.08999 21C8.96918 20.9481 8.85976 20.873 8.76799 20.7788C8.67622 20.6847 8.6039 20.5733 8.55515 20.4512C8.45669 20.2046 8.46023 19.929 8.56499 19.685C8.61686 19.5642 8.69203 19.4548 8.78618 19.363C8.88034 19.2712 8.99165 19.1989 9.11376 19.1502C9.36037 19.0517 9.63599 19.0552 9.87999 19.16L11.39 19.81C11.616 19.891 11.8053 20.0506 11.9234 20.2596C12.0414 20.4686 12.0804 20.7131 12.0331 20.9485C11.9857 21.1838 11.8553 21.3943 11.6657 21.5415C11.476 21.6886 11.2397 21.7626 11 21.75ZM31.09 13.07H30.87C30.741 13.0416 30.6189 12.988 30.5108 12.9122C30.4026 12.8364 30.3106 12.74 30.2399 12.6284C30.1693 12.5168 30.1214 12.3924 30.0991 12.2622C30.0768 12.132 30.0805 11.9987 30.11 11.87L30.53 10C30.5518 9.86571 30.6008 9.73728 30.6739 9.62256C30.747 9.50785 30.8428 9.40927 30.9554 9.33285C31.0679 9.25643 31.1949 9.20379 31.3285 9.17813C31.4621 9.15248 31.5996 9.15436 31.7324 9.18365C31.8653 9.21295 31.9908 9.26905 32.1012 9.34851C32.2116 9.42798 32.3047 9.52914 32.3746 9.64581C32.4446 9.76248 32.4901 9.89221 32.5082 10.027C32.5263 10.1619 32.5167 10.299 32.48 10.43L32.06 12.29C32.0103 12.5105 31.8873 12.7077 31.7111 12.8493C31.535 12.991 31.316 13.0688 31.09 13.07ZM36.59 16.69C36.3598 16.6881 36.1373 16.6069 35.96 16.46C35.858 16.3768 35.7735 16.2742 35.7112 16.1582C35.6489 16.0422 35.6102 15.9151 35.5972 15.7841C35.5842 15.6531 35.5972 15.5208 35.6354 15.3948C35.6736 15.2689 35.7364 15.1517 35.82 15.05L37 13.68C37.182 13.5109 37.4204 13.4155 37.6688 13.4125C37.9173 13.4096 38.1579 13.4992 38.3439 13.664C38.5299 13.8287 38.6479 14.0568 38.6749 14.3038C38.7019 14.5508 38.636 14.799 38.49 15L37.37 16.36C37.272 16.4687 37.1514 16.5546 37.0167 16.6117C36.8819 16.6687 36.7362 16.6954 36.59 16.69ZM40 22.07C39.8397 22.0709 39.6815 22.0332 39.5387 21.9601C39.396 21.887 39.273 21.7806 39.18 21.65C39.0292 21.4324 38.9708 21.1639 39.0177 20.9033C39.0645 20.6428 39.2128 20.4114 39.43 20.26L40.92 19.21C41.1365 19.0795 41.3944 19.0358 41.6418 19.0877C41.8892 19.1396 42.1077 19.2833 42.2535 19.4899C42.3992 19.6964 42.4613 19.9505 42.4272 20.201C42.3932 20.4515 42.2656 20.6798 42.07 20.84L40.57 21.89C40.4053 22.0118 40.2047 22.0751 40 22.07ZM21.71 12.48C21.5097 12.4802 21.314 12.4202 21.1482 12.3079C20.9824 12.1956 20.8541 12.0361 20.78 11.85L20.16 10.3C20.0993 10.0649 20.1262 9.8157 20.2357 9.59896C20.3452 9.38222 20.5298 9.21272 20.7551 9.12212C20.9804 9.03151 21.2309 9.02598 21.46 9.10655C21.6891 9.18713 21.881 9.3483 22 9.56L22.62 11.11C22.6687 11.2321 22.6929 11.3626 22.6911 11.4941C22.6893 11.6256 22.6616 11.7554 22.6096 11.8761C22.5576 11.9969 22.4822 12.1062 22.3879 12.1978C22.2936 12.2894 22.1822 12.3615 22.06 12.41C21.9485 12.4541 21.8299 12.4778 21.71 12.48Z" fill="#F4EC90"/>
</svg>
